<svg xmlns="http://www.w3.org/2000/svg" enable-background="new 0 0 20 20" height="20" viewBox="0 0 20 20" width="20"><g><rect fill="none" height="20" width="20" x="0" y="0"/></g><g><g><path d="M14,8.5c0.34,0,0.68,0.04,1,0.1V6.5H5v9C5,16.33,5.67,17,6.5,17h2.89c-0.56-0.86-0.89-1.89-0.89-3 C8.5,10.96,10.96,8.5,14,8.5z"/><polygon points="16,4 13,4 12,3 8,3 7,4 4,4 4,5.5 16,5.5"/><g><path d="M14,10c-2.21,0-4,1.79-4,4c0,2.21,1.79,4,4,4s4-1.79,4-4C18,11.79,16.21,10,14,10z M14.79,15.5l-1.15-1.15 c-0.09-0.09-0.15-0.22-0.15-0.35v-1.5c0-0.28,0.22-0.5,0.5-0.5h0c0.28,0,0.5,0.22,0.5,0.5v1.29l1,1c0.2,0.2,0.2,0.51,0,0.71l0,0 C15.3,15.7,14.99,15.7,14.79,15.5z"/></g></g></g></svg>