<svg xmlns="http://www.w3.org/2000/svg" enable-background="new 0 0 20 20" height="20" viewBox="0 0 20 20" width="20"><g><g><rect fill="none" height="20" width="20"/></g></g><g><g><path d="M16.5,11l0-6.59c0-1.34-1.1-2.45-2.44-2.41c-1.04,0.03-1.48,0.61-2.45,1.57c-0.5-0.13-1.04-0.02-1.43,0.37l2.12,2.12 c0.39-0.39,0.49-0.93,0.37-1.43c0.86-0.86,1.02-1.14,1.49-1.13c0.45,0,0.83,0.39,0.83,0.84L15,11H9.5L7.51,9.21 c-0.33-0.3-0.76-0.46-1.2-0.46h0c-1,0-1.8,0.81-1.8,1.8V11H3c-0.55,0-1,0.45-1,1v3.5C2,16.33,2.67,17,3.5,17H4v0 c0,0.55,0.45,1,1,1h10c0.55,0,1-0.45,1-1v0h0.5c0.83,0,1.5-0.67,1.5-1.5V12c0-0.55-0.45-1-1-1H16.5z"/><circle cx="6" cy="6" r="1.75"/></g></g></svg>