<svg xmlns="http://www.w3.org/2000/svg" enable-background="new 0 0 20 20" height="20" viewBox="0 0 20 20" width="20"><g><rect fill="none" height="20" width="20"/></g><g><g><path d="M2.75,5L2.75,5C2.34,5,2,5.34,2,5.75V16.5C2,17.33,2.67,18,3.5,18h10.75c0.41,0,0.75-0.34,0.75-0.75l0,0 c0-0.41-0.34-0.75-0.75-0.75H3.5V5.75C3.5,5.34,3.16,5,2.75,5z"/><path d="M16.5,2h-10C5.67,2,5,2.67,5,3.5v10C5,14.33,5.67,15,6.5,15h10c0.83,0,1.5-0.67,1.5-1.5v-10C18,2.67,17.33,2,16.5,2z M9.73,10.8L8.14,9.21c-0.29-0.29-0.29-0.77,0-1.06l0,0c0.29-0.29,0.77-0.29,1.06,0l1.24,1.24l3.36-3.36 c0.29-0.29,0.77-0.29,1.06,0l0,0c0.29,0.29,0.29,0.77,0,1.06l-3.71,3.71C10.76,11.19,10.12,11.19,9.73,10.8z"/></g></g></svg>