<svg xmlns="http://www.w3.org/2000/svg" enable-background="new 0 0 20 20" height="20" viewBox="0 0 20 20" width="20"><g><rect fill="none" height="20" width="20"/></g><g><g><path d="M16.5,4h-13C2.67,4,2,4.67,2,5.5v9C2,15.33,2.67,16,3.5,16h13c0.83,0,1.5-0.67,1.5-1.5v-9C18,4.67,17.33,4,16.5,4z M3.5,14.5V7h13v7.5H3.5z"/><path d="M9.12,11.54L7.88,10.3c-0.29-0.29-0.77-0.29-1.06,0l0,0c-0.29,0.29-0.29,0.77,0,1.06l1.59,1.59 c0.39,0.39,1.02,0.39,1.41,0l3.36-3.36c0.29-0.29,0.29-0.77,0-1.06l0,0c-0.29-0.29-0.77-0.29-1.06,0L9.12,11.54z"/></g></g></svg>