<svg xmlns="http://www.w3.org/2000/svg" enable-background="new 0 0 20 20" height="20" viewBox="0 0 20 20" width="20"><g><rect fill="none" height="20" width="20"/></g><g><path d="M14.75,6V3.5h0.5C15.66,3.5,16,3.16,16,2.75v0C16,2.34,15.66,2,15.25,2H4.75C4.34,2,4,2.34,4,2.75v0 C4,3.16,4.34,3.5,4.75,3.5h0.5V6c0,1.68,0.89,3.16,2.21,4c-1.32,0.84-2.21,2.32-2.21,4v2.5h-0.5C4.34,16.5,4,16.84,4,17.25l0,0 C4,17.66,4.34,18,4.75,18h10.5c0.41,0,0.75-0.34,0.75-0.75l0,0c0-0.41-0.34-0.75-0.75-0.75h-0.5V14c0-1.68-0.89-3.16-2.21-4 C13.86,9.16,14.75,7.68,14.75,6z M10,9.25C8.21,9.25,6.75,7.79,6.75,6V3.5h6.5V6C13.25,7.79,11.79,9.25,10,9.25z"/></g></svg>