<svg xmlns="http://www.w3.org/2000/svg" enable-background="new 0 0 20 20" height="20" viewBox="0 0 20 20" width="20"><g><rect fill="none" height="20" width="20"/></g><g><g><g><path d="M16.89,3.84C16.12,3.43,14.98,3,13.6,3c-1.39,0-2.53,0.43-3.3,0.84c-0.6,0.32-0.72,1.11-0.24,1.59l2.83,2.86 c0.39,0.39,1.03,0.39,1.42,0l2.83-2.86C17.61,4.95,17.49,4.15,16.89,3.84z"/></g><g><path d="M16.22,12.2l-2.23-0.49c-0.33-0.07-0.68,0.03-0.92,0.27l-2.08,2c-2.11-1.15-3.85-2.89-5-5l2.04-2.04 C8.27,6.69,8.37,6.34,8.3,6.01L7.8,3.78C7.7,3.33,7.29,3,6.82,3L4,3C3.41,3,2.96,3.51,3,4.1C3.54,10.96,9.04,16.46,15.9,17 c0.59,0.05,1.1-0.41,1.1-1l0-2.82C17,12.71,16.67,12.3,16.22,12.2z"/></g></g></g></svg>