<svg xmlns="http://www.w3.org/2000/svg" enable-background="new 0 0 20 20" height="20" viewBox="0 0 20 20" width="20"><g><rect fill="none" height="20" width="20" y="0"/></g><g><path d="M16.35,16.15l-1.94-1.94l-0.81,0.81l-0.71-0.71l0.81-0.81l-1.89-1.89l-0.81,0.81l-0.71-0.71l0.81-0.81L9.23,9.03L8.42,9.84 L7.71,9.13l0.81-0.81L6.64,6.43L5.83,7.24L5.12,6.54l0.81-0.81L3.85,3.65C3.75,3.55,3.63,3.5,3.5,3.5C3.25,3.5,3,3.7,3,4v11.5 C3,16.33,3.67,17,4.5,17H16C16.44,17,16.67,16.46,16.35,16.15z M5,15V7.62L12.38,15H5z"/></g></svg>