<svg xmlns="http://www.w3.org/2000/svg" enable-background="new 0 0 20 20" height="20" viewBox="0 0 20 20" width="20"><g><g><rect fill="none" height="20" width="20"/></g></g><g><g><path d="M14,10c-2.21,0-4,1.79-4,4c0,2.21,1.79,4,4,4s4-1.79,4-4C18,11.79,16.21,10,14,10z M15.45,14.84 c0.17,0.17,0.17,0.44,0,0.61c-0.17,0.17-0.44,0.17-0.61,0l-0.86-0.86l-0.86,0.86c-0.17,0.17-0.44,0.17-0.61,0 c-0.17-0.17-0.17-0.44,0-0.61l0.86-0.86l-0.86-0.86c-0.17-0.17-0.17-0.44,0-0.61l0,0c0.17-0.17,0.44-0.17,0.61,0l0.86,0.86 l0.86-0.86c0.17-0.17,0.44-0.17,0.61,0l0,0c0.17,0.17,0.17,0.44,0,0.61l-0.86,0.86L15.45,14.84z"/><path d="M14,8.5c0.1,0,0.19,0.01,0.29,0.01L3.69,4.27C3.36,4.14,3,4.38,3,4.74v2.9c0,0.22,0.14,0.41,0.34,0.47L9,10l-5.66,1.89 C3.14,11.95,3,12.15,3,12.36v2.9c0,0.35,0.36,0.6,0.69,0.46l4.82-1.93C8.62,10.85,11.03,8.5,14,8.5z"/></g></g></svg>