<svg xmlns="http://www.w3.org/2000/svg" enable-background="new 0 0 20 20" height="20" viewBox="0 0 20 20" width="20"><g><rect fill="none" height="20" width="20"/></g><g><g><path d="M8.79,10.79c-0.39,0.39-0.39,1.02,0,1.41c0.39,0.39,1.02,0.39,1.41,0c0.39-0.39,0.39-1.02,0-1.41 C9.82,10.4,9.18,10.4,8.79,10.79z"/><path d="M12,2H5.5C4.67,2,4,2.67,4,3.5v13C4,17.33,4.67,18,5.5,18h9c0.83,0,1.5-0.67,1.5-1.5V6L12,2z M11.94,15l-1.29-1.29 c-0.94,0.49-2.13,0.35-2.92-0.44c-0.98-0.98-0.98-2.56,0-3.54c0.32-0.32,2.03-1.5,3.54,0c0.79,0.79,0.93,1.97,0.44,2.92L13,13.94 c0.29,0.29,0.29,0.77,0,1.06l0,0C12.71,15.29,12.23,15.29,11.94,15z M11,6V3l4,4h-3C11.45,7,11,6.55,11,6z"/></g></g></svg>