<svg xmlns="http://www.w3.org/2000/svg" enable-background="new 0 0 20 20" height="20" viewBox="0 0 20 20" width="20"><g><rect fill="none" height="20" width="20"/></g><g><g><path d="M10,2c-4.42,0-8,3.58-8,8s3.58,8,8,8s8-3.58,8-8S14.42,2,10,2z M16,7.5l-2.26,1.13c-0.4-1.1-1.27-1.97-2.37-2.37L12.5,4 C14.08,4.66,15.34,5.92,16,7.5z M10,12.5c-1.38,0-2.5-1.12-2.5-2.5S8.62,7.5,10,7.5s2.5,1.12,2.5,2.5S11.38,12.5,10,12.5z M7.5,4 l1.13,2.26c-1.1,0.4-1.97,1.27-2.37,2.37L4,7.5C4.66,5.92,5.92,4.66,7.5,4z M4,12.5l2.26-1.13c0.4,1.1,1.27,1.97,2.37,2.37L7.5,16 C5.92,15.34,4.66,14.08,4,12.5z M12.5,16l-1.13-2.26c1.1-0.4,1.97-1.27,2.37-2.37L16,12.5C15.34,14.08,14.08,15.34,12.5,16z"/></g></g></svg>