<svg xmlns="http://www.w3.org/2000/svg" enable-background="new 0 0 20 20" height="20" viewBox="0 0 20 20" width="20"><g><rect fill="none" height="20" width="20"/></g><g><g><path d="M4.75,17h10.5c0.41,0,0.75-0.34,0.75-0.75l0,0c0-0.41-0.34-0.75-0.75-0.75H4.75C4.34,15.5,4,15.84,4,16.25l0,0 C4,16.66,4.34,17,4.75,17z"/><path d="M16.5,3H9v2l1.35,1.35c0.09,0.09,0.15,0.22,0.15,0.35V9.5c0,0.28-0.22,0.5-0.5,0.5H7c-0.28,0-0.5-0.22-0.5-0.5V6.71 c0-0.13,0.05-0.26,0.15-0.35L8,5V3H5.5C4.67,3,4,3.67,4,4.5V11c0,1.66,1.34,3,3,3h5c1.66,0,3-1.34,3-3V9h1.5 C17.33,9,18,8.33,18,7.5v-3C18,3.67,17.33,3,16.5,3z M16.5,7.5H15v-3h1.5V7.5z"/></g></g></svg>