<svg xmlns="http://www.w3.org/2000/svg" enable-background="new 0 0 20 20" height="20" viewBox="0 0 20 20" width="20"><g><rect fill="none" height="20" width="20"/><rect fill="none" height="20" width="20"/></g><g><g><circle cx="10" cy="4" r="1.75"/><path d="M13.22,7.66C12.8,7.24,12.23,7,11.63,7H9.5C7.51,7,5.85,5.53,5.55,3.62C5.49,3.26,5.18,3,4.82,3h0 C4.36,3,4,3.41,4.07,3.87C4.38,5.82,5.71,7.42,7.5,8.12v9.13C7.5,17.66,7.84,18,8.25,18h0C8.66,18,9,17.66,9,17.25v-4.26h2v4.26 c0,0.41,0.34,0.75,0.75,0.75h0c0.41,0,0.75-0.34,0.75-0.75V9.06l2.47,2.47c0.29,0.29,0.77,0.29,1.06,0v0 c0.29-0.29,0.29-0.77,0-1.06L13.22,7.66z"/></g></g></svg>