<svg xmlns="http://www.w3.org/2000/svg" enable-background="new 0 0 20 20" height="20" viewBox="0 0 20 20" width="20"><g><rect fill="none" height="20" width="20"/></g><g><path d="M10,2c-4.42,0-8,3.58-8,8s3.58,8,8,8s8-3.58,8-8S14.42,2,10,2z M6,8c0-0.69,0.56-1.25,1.25-1.25S8.5,7.31,8.5,8 S7.94,9.25,7.25,9.25S6,8.69,6,8z M13.38,12.44C12.56,13.39,11.36,14,10,14s-2.56-0.61-3.38-1.56c-0.29-0.33-0.07-0.84,0.37-0.84 h6.02C13.45,11.6,13.67,12.11,13.38,12.44z M12.75,9.25c-0.69,0-1.25-0.56-1.25-1.25s0.56-1.25,1.25-1.25S14,7.31,14,8 S13.44,9.25,12.75,9.25z"/></g></svg>