<svg xmlns="http://www.w3.org/2000/svg" enable-background="new 0 0 20 20" height="20" viewBox="0 0 20 20" width="20"><g><rect fill="none" height="20" width="20"/><rect fill="none" height="20" width="20"/></g><g><g><path d="M3.73,3.5h4.54C8.67,3.5,9,3.17,9,2.77V2.73C9,2.33,8.67,2,8.27,2H3.73C3.33,2,3,2.33,3,2.73v0.04 C3,3.17,3.33,3.5,3.73,3.5z"/><path d="M13.5,9c1.1,0,2-0.9,2-2V3.5h1.25c0.41,0,0.75-0.34,0.75-0.75S17.16,2,16.75,2H15c-0.55,0-1,0.45-1,1v2.07 C13.84,5.03,13.67,5,13.5,5c-1.1,0-2,0.9-2,2S12.4,9,13.5,9z"/><path d="M3.73,6h1.52v2.25C5.25,8.66,5.59,9,6,9s0.75-0.34,0.75-0.75V6h1.52C8.67,6,9,5.67,9,5.27S8.67,4.54,8.27,4.54H3.73 C3.33,4.54,3,4.86,3,5.27S3.33,6,3.73,6z"/><path d="M8.87,13.9c-0.29-0.29-0.77-0.29-1.06,0l-0.58,0.58l-0.71-0.71l0.27-0.27c0.75-0.75,0.89-1.99,0.2-2.8 C6.59,10.23,6.03,10,5.47,10s-1.12,0.23-1.52,0.7c-0.69,0.81-0.56,2.05,0.19,2.8l0.27,0.27l-0.74,0.74 c-0.7,0.7-0.88,1.84-0.29,2.65c0.74,1.03,2.19,1.12,3.05,0.26l0.82-0.82l0.58,0.58c0.29,0.29,0.77,0.29,1.06,0 c0.29-0.29,0.29-0.77,0-1.06l-0.58-0.58l0.58-0.58C9.16,14.67,9.16,14.19,8.87,13.9z M5.47,11.5c0.28,0,0.5,0.22,0.5,0.5 c0,0.08-0.02,0.23-0.15,0.35l-0.35,0.35l-0.35-0.35C4.98,12.23,4.97,12.08,4.97,12C4.97,11.72,5.19,11.5,5.47,11.5z M5.35,16.35 c-0.19,0.19-0.51,0.19-0.71,0c-0.2-0.2-0.19-0.51,0-0.71l0.82-0.82l0.71,0.71L5.35,16.35z"/><circle cx="12" cy="12" r="1.25"/><circle cx="16.25" cy="16.25" r="1.25"/><path d="M16.97,11.07L16.97,11.07c-0.29-0.29-0.77-0.29-1.06,0l-5.04,5.04c-0.29,0.29-0.29,0.77,0,1.06 c0.29,0.29,0.77,0.29,1.06,0l5.04-5.04C17.26,11.84,17.26,11.37,16.97,11.07z"/></g></g></svg>