<svg xmlns="http://www.w3.org/2000/svg" enable-background="new 0 0 20 20" height="20" viewBox="0 0 20 20" width="20"><g><rect fill="none" height="20" width="20"/></g><g><path d="M17.97,13.22l-1.18-6.18C16.56,5.85,15.53,5,14.33,5H5.67c-1.2,0-2.23,0.85-2.46,2.03l-1.18,6.18 C1.81,14.4,2.72,15.5,3.92,15.5c0.44,0,0.86-0.15,1.2-0.42L7.1,13.5h5.8l1.97,1.58c0.34,0.27,0.77,0.42,1.2,0.42 C17.28,15.5,18.19,14.4,17.97,13.22z M8.75,9.75H8v0.75C8,10.78,7.78,11,7.5,11h0C7.22,11,7,10.78,7,10.5V9.75H6.25 c-0.28,0-0.5-0.22-0.5-0.5v0c0-0.28,0.22-0.5,0.5-0.5H7V8c0-0.28,0.22-0.5,0.5-0.5h0C7.78,7.5,8,7.72,8,8v0.75h0.75 c0.28,0,0.5,0.22,0.5,0.5v0C9.25,9.53,9.03,9.75,8.75,9.75z M12.25,9c-0.41,0-0.75-0.34-0.75-0.75c0-0.41,0.34-0.75,0.75-0.75 S13,7.84,13,8.25C13,8.66,12.66,9,12.25,9z M13.75,11C13.34,11,13,10.66,13,10.25c0-0.41,0.34-0.75,0.75-0.75s0.75,0.34,0.75,0.75 C14.5,10.66,14.16,11,13.75,11z"/></g></svg>