<svg xmlns="http://www.w3.org/2000/svg" enable-background="new 0 0 20 20" height="20" viewBox="0 0 20 20" width="20"><g><rect fill="none" height="20" width="20"/></g><g><g><path d="M15,2c-1.66,0-3,1.34-3,3s1.34,3,3,3c1.66,0,3-1.34,3-3S16.66,2,15,2z"/><path d="M12.69,11.46L5.36,4.15c-0.2-0.2-0.51-0.2-0.71,0L2.15,6.66c-0.2,0.2-0.2,0.51,0,0.71l7.36,7.36c0.2,0.2,0.51,0.2,0.71,0 l2.47-2.47C12.9,12.04,12.9,11.68,12.69,11.46z"/><path d="M11.62,14.67l2.8,2.8c0.29,0.29,0.77,0.29,1.06,0h0c0.29-0.29,0.29-0.77,0-1.06l-2.8-2.8L11.62,14.67z"/></g></g></svg>