<svg xmlns="http://www.w3.org/2000/svg" enable-background="new 0 0 20 20" height="20" viewBox="0 0 20 20" width="20"><g><rect fill="none" height="20" width="20"/></g><g><g><path d="M6.75,16h1c0.83,0,1.5,0.67,1.5,1.5V18h1.5v-0.5c0-0.83,0.67-1.5,1.5-1.5l1,0c0.41,0,0.75-0.34,0.75-0.75v0 c0-0.41-0.34-0.75-0.75-0.75h-6.5C6.34,14.5,6,14.84,6,15.25v0C6,15.66,6.34,16,6.75,16z"/><circle cx="10" cy="5" r=".75"/><circle cx="11.75" cy="7" r=".75"/><circle cx="8.25" cy="7" r=".75"/><path d="M10,13c3.04,0,5.5-2.46,5.5-5.5S13.04,2,10,2S4.5,4.46,4.5,7.5S6.96,13,10,13z M10,3.5c2.21,0,4,1.79,4,4s-1.79,4-4,4 s-4-1.79-4-4S7.79,3.5,10,3.5z"/></g></g></svg>