<svg xmlns="http://www.w3.org/2000/svg" enable-background="new 0 0 20 20" height="20" viewBox="0 0 20 20" width="20"><g><rect fill="none" height="20" width="20"/></g><g><g><path d="M11.53,4.24c-0.48,0.84-0.2,1.91,0.64,2.39c0.84,0.48,1.91,0.2,2.39-0.64s0.2-1.91-0.64-2.39 C13.08,3.11,12.01,3.4,11.53,4.24z"/><path d="M12.63,8.33l-2.17-1.25C8.91,6.19,8.37,4.2,9.27,2.64l0.38-0.65c0.21-0.36,0.08-0.82-0.27-1.02l0,0 C9.01,0.76,8.55,0.89,8.35,1.24L7.97,1.89c-1.09,1.89-0.71,4.22,0.75,5.7l-3.97,6.87c-0.21,0.36-0.08,0.82,0.27,1.02l0,0 c0.36,0.21,0.82,0.08,1.02-0.27l1.51-2.61l1.73,1L6.41,18.6c-0.21,0.36-0.08,0.82,0.27,1.02l0,0c0.36,0.21,0.82,0.08,1.02-0.27 l5.12-8.88c0.77,1.01,0.91,2.43,0.23,3.6l-0.38,0.65c-0.21,0.36-0.08,0.82,0.27,1.02h0c0.36,0.21,0.82,0.08,1.02-0.27l0.38-0.65 C15.68,12.55,14.9,9.64,12.63,8.33z"/><circle cx="11.5" cy="2" r="1"/></g></g></svg>