<svg xmlns="http://www.w3.org/2000/svg" enable-background="new 0 0 20 20" height="20" viewBox="0 0 20 20" width="20"><g><rect fill="none" height="20" width="20"/></g><g><g><path d="M10,2c-4.42,0-8,3.58-8,8s3.58,8,8,8s8-3.58,8-8S14.42,2,10,2z M4.71,9.27l1.11,0.32l1.1,3.28l-0.69,0.92L4.7,13.75 c-0.71-1.01-1.15-2.22-1.19-3.54L4.71,9.27z M7.29,9.27L10,7.37l2.71,1.9l-1.01,2.99h-3.4L7.29,9.27z M15.29,13.77l-1.52,0.03 l-0.69-0.93l1.11-3.28l1.11-0.32l1.2,0.95C16.44,11.54,16.01,12.76,15.29,13.77z M15.4,6.39l-0.52,1.44l-1.15,0.33l-2.99-2.09 V4.71L12,3.82C13.4,4.27,14.59,5.19,15.4,6.39z M8.01,3.82l1.24,0.89v1.35L6.26,8.15L5.12,7.83L4.6,6.38 C5.41,5.18,6.61,4.27,8.01,3.82z M7.89,16.14l-0.46-1.46l0.7-0.93h3.73l0.7,0.94l-0.46,1.46c-0.66,0.22-1.36,0.35-2.09,0.35 C9.26,16.5,8.55,16.37,7.89,16.14z"/></g></g></svg>