<svg xmlns="http://www.w3.org/2000/svg" enable-background="new 0 0 20 20" height="20" viewBox="0 0 20 20" width="20"><g><rect fill="none" height="20" width="20"/><rect fill="none" height="20" width="20"/></g><g><path d="M14.5,8.5v-2C14.5,5.67,13.83,5,13,5H7C6.17,5,5.5,5.67,5.5,6.5v2C4.67,8.5,4,9.17,4,10v4h1l0.66,1.77 C5.72,15.91,5.85,16,6,16h0c0.15,0,0.28-0.09,0.34-0.23L7,14h6l0.66,1.77C13.72,15.91,13.85,16,14,16l0,0 c0.15,0,0.28-0.09,0.34-0.23L15,14h1v-4C16,9.17,15.33,8.5,14.5,8.5z M13,6.56V8.5h-2.25v-2h2.19C12.97,6.5,13,6.53,13,6.56z M7,6.56C7,6.53,7.03,6.5,7.06,6.5h2.19v2H7V6.56z"/></g></svg>