<svg xmlns="http://www.w3.org/2000/svg" enable-background="new 0 0 20 20" height="20" viewBox="0 0 20 20" width="20"><g><rect fill="none" height="20" width="20"/></g><g><g><path d="M15,6c-0.55,0-1,0.45-1,1V4.5C14,3.67,13.33,3,12.5,3h-7C4.67,3,4,3.67,4,4.5v4.79C4.02,9.43,4.04,9.56,4.06,9.7 l0.63,2.21C4.87,12.56,5.46,13,6.13,13h7.74c0.67,0,1.26-0.44,1.44-1.09l0.63-2.21c0.02-0.14,0.04-0.27,0.06-0.41V7 C16,6.45,15.55,6,15,6z M10.5,8h-3C7.22,8,7,7.78,7,7.5v-1C7,6.22,7.22,6,7.5,6h3C10.78,6,11,6.22,11,6.5v1 C11,7.78,10.78,8,10.5,8z"/><path d="M6,16c0,0.55,0.45,1,1,1h6c0.55,0,1-0.45,1-1v-2H6V16z"/></g></g></svg>