<svg xmlns="http://www.w3.org/2000/svg" enable-background="new 0 0 20 20" height="20" viewBox="0 0 20 20" width="20"><g><rect fill="none" height="20" width="20"/></g><g><g><path d="M14,12.5c-1.66,0-3,1.34-3,3s1.34,3,3,3s3-1.34,3-3S15.66,12.5,14,12.5z"/><path d="M15.8,2.21c-1.9-1.9-5.35-1.51-7.73,0.86c-3.8,3.8-0.38,6.19-3.57,9.37l-1.97,1.97c-0.29,0.29-0.29,0.77,0,1.06l0,0 c0.29,0.29,0.77,0.29,1.06,0l1.97-1.97c3.21-3.21,5.53,0.28,9.37-3.56C17.31,7.56,17.69,4.11,15.8,2.21z M10.29,10.5 c-0.57,0-1.39-0.13-2.03-0.76c-1.3-1.31-0.92-3.82,0.87-5.61c1.04-1.04,2.34-1.63,3.59-1.63c0.57,0,1.39,0.13,2.02,0.77 c1.3,1.31,0.92,3.83-0.86,5.61C12.84,9.91,11.53,10.5,10.29,10.5z"/></g></g></svg>