<svg xmlns="http://www.w3.org/2000/svg" enable-background="new 0 0 20 20" height="20" viewBox="0 0 20 20" width="20"><g><rect fill="none" height="20" width="20"/></g><g><g><path d="M4.75,5h2.5C7.66,5,8,4.66,8,4.25C8,3.84,7.66,3.5,7.25,3.5h-2.5C4.34,3.5,4,3.84,4,4.25C4,4.66,4.34,5,4.75,5z"/><path d="M8.5,11H11c0.44,0,0.87-0.2,1.15-0.54l3-3.59c0.23-0.27,0.35-0.61,0.35-0.96V4.5C15.5,3.67,14.83,3,14,3h-1.75 c-0.41,0-0.75,0.34-0.75,0.75c0,0.41,0.34,0.75,0.75,0.75H14v1.41L11,9.5H8V7c0-0.55-0.45-1-1-1H5C3.34,6,2,7.34,2,9v1 c0,0.55,0.45,1,1,1h0.5c0,1.38,1.12,2.5,2.5,2.5S8.5,12.38,8.5,11z M5,11h2c0,0.55-0.45,1-1,1S5,11.55,5,11z"/><path d="M15.5,8.5C14.12,8.5,13,9.62,13,11s1.12,2.5,2.5,2.5S18,12.38,18,11S16.88,8.5,15.5,8.5z M15.5,12c-0.55,0-1-0.45-1-1 s0.45-1,1-1s1,0.45,1,1S16.05,12,15.5,12z"/><polygon points="9,17 6,17 11,19.5 11,17.5 14,17.5 9,15"/></g></g></svg>