<svg xmlns="http://www.w3.org/2000/svg" enable-background="new 0 0 20 20" height="20" viewBox="0 0 20 20" width="20"><g><rect fill="none" height="20" width="20"/></g><g><g><path d="M15.38,2.94C15.15,2.37,14.6,2,13.98,2H6.02C5.4,2,4.85,2.37,4.62,2.94L3,7l0,6c0,0.55,0.45,1,1,1h0c0.55,0,1-0.45,1-1 v-0.5h10V13c0,0.55,0.45,1,1,1s1-0.45,1-1V7L15.38,2.94z M6.5,10.25c-0.55,0-1-0.45-1-1s0.45-1,1-1c0.55,0,1,0.45,1,1 S7.05,10.25,6.5,10.25z M13.5,10.25c-0.55,0-1-0.45-1-1s0.45-1,1-1c0.55,0,1,0.45,1,1S14.05,10.25,13.5,10.25z M5.02,6l1-2.5h7.97 l1,2.5H5.02z"/><polygon points="9,17 6,17 11,19.5 11,17.5 14,17.5 9,15"/></g></g></svg>