<svg xmlns="http://www.w3.org/2000/svg" enable-background="new 0 0 20 20" height="20" viewBox="0 0 20 20" width="20"><g><rect fill="none" height="20" width="20"/></g><g><g><polygon points="9,17 6,17 11,19.5 11,17.5 14,17.5 9,15"/><path d="M6.87,13.25h5.21C12.03,13.01,12,12.76,12,12.5c0-2.35,2.04-3.5,3.5-3.5c0.24,0,0.48,0.03,0.71,0.07l-1.56-6.9 C14.5,1.49,13.89,1,13.19,1h-2.44C10.34,1,10,1.34,10,1.75v0c0,0.41,0.34,0.75,0.75,0.75h2.44l1.16,5.15 c-1.97,0.46-3.47,2.08-3.77,4.1h-3.7c-0.38-1.21-1.64-2.02-3.04-1.66C3,10.3,2.31,10.99,2.09,11.83C1.65,13.5,2.9,15,4.5,15 C5.62,15,6.55,14.26,6.87,13.25z M4.5,13.5c-0.55,0-1-0.45-1-1s0.45-1,1-1s1,0.45,1,1S5.05,13.5,4.5,13.5z"/><path d="M15.5,10c-1.38,0-2.5,1.12-2.5,2.5s1.12,2.5,2.5,2.5s2.5-1.12,2.5-2.5S16.88,10,15.5,10z M15.5,13.5c-0.55,0-1-0.45-1-1 s0.45-1,1-1s1,0.45,1,1S16.05,13.5,15.5,13.5z"/></g></g></svg>