<svg xmlns="http://www.w3.org/2000/svg" enable-background="new 0 0 20 20" height="20" viewBox="0 0 20 20" width="20"><g><rect fill="none" height="20" width="20"/></g><g><g><path d="M17,10.05V8.53c0-0.34-0.12-0.67-0.33-0.94l-3.22-4.03C13.17,3.21,12.73,3,12.28,3H2.5C1.67,3,1,3.67,1,4.5V11 c0,0.83,0.67,1.5,1.5,1.5H3C3,13.88,4.12,15,5.5,15S8,13.88,8,12.5h6c0,1.61,1.52,2.86,3.2,2.4c0.79-0.22,1.45-0.85,1.69-1.64 C19.34,11.74,18.38,10.33,17,10.05z M2.5,8V4.5h3.75V8H2.5z M5.5,13.5c-0.55,0-1-0.45-1-1s0.45-1,1-1s1,0.45,1,1 S6.05,13.5,5.5,13.5z M11.5,11H7.75V9.5h1.5C9.66,9.5,10,9.16,10,8.75v0C10,8.34,9.66,8,9.25,8h-1.5V4.5h3.75V11z M13,8V5.4 L15.08,8H13z M16.5,13.5c-0.55,0-1-0.45-1-1s0.45-1,1-1s1,0.45,1,1S17.05,13.5,16.5,13.5z"/><polygon points="9,17 6,17 11,19.5 11,17.5 14,17.5 9,15"/></g></g></svg>